<mxfile host="app.diagrams.net" modified="2024-05-09T09:58:35.556Z" agent="Mozilla/5.0 (Macintosh; Intel Mac OS X 10_15_7) AppleWebKit/537.36 (KHTML, like Gecko) Chrome/124.0.0.0 Safari/537.36" etag="Tw6UpCekIEZOstupr30C" version="24.3.1" type="github">
  <diagram name="Page-1" id="0HDmdloTcH0qQN3vc7QG">
    <mxGraphModel dx="757" dy="856" grid="1" gridSize="10" guides="1" tooltips="1" connect="1" arrows="1" fold="1" page="1" pageScale="1" pageWidth="827" pageHeight="1169" math="0" shadow="0">
      <root>
        <mxCell id="0" />
        <mxCell id="1" parent="0" />
        <mxCell id="1fhaBdgzW0mIe5YVaV1Y-7" value="" style="rounded=0;whiteSpace=wrap;html=1;align=left;" vertex="1" parent="1">
          <mxGeometry x="310" y="330" width="160" height="410" as="geometry" />
        </mxCell>
        <mxCell id="1fhaBdgzW0mIe5YVaV1Y-5" value="" style="rounded=0;whiteSpace=wrap;html=1;align=left;" vertex="1" parent="1">
          <mxGeometry x="70" y="330" width="160" height="410" as="geometry" />
        </mxCell>
        <mxCell id="1fhaBdgzW0mIe5YVaV1Y-1" value="UI&lt;br&gt;(phemex-home/trade)" style="rounded=0;whiteSpace=wrap;html=1;" vertex="1" parent="1">
          <mxGeometry x="90" y="390" width="120" height="330" as="geometry" />
        </mxCell>
        <mxCell id="1fhaBdgzW0mIe5YVaV1Y-2" value="DataProvider&lt;br&gt;(ws-data)" style="rounded=0;whiteSpace=wrap;html=1;" vertex="1" parent="1">
          <mxGeometry x="330" y="390" width="120" height="330" as="geometry" />
        </mxCell>
        <mxCell id="1fhaBdgzW0mIe5YVaV1Y-3" value="DataGateway" style="rounded=0;whiteSpace=wrap;html=1;" vertex="1" parent="1">
          <mxGeometry x="570" y="390" width="120" height="330" as="geometry" />
        </mxCell>
        <mxCell id="1fhaBdgzW0mIe5YVaV1Y-6" value="Browser" style="text;html=1;align=center;verticalAlign=middle;whiteSpace=wrap;rounded=0;" vertex="1" parent="1">
          <mxGeometry x="70" y="330" width="60" height="30" as="geometry" />
        </mxCell>
        <mxCell id="1fhaBdgzW0mIe5YVaV1Y-8" value="Worker" style="text;html=1;align=center;verticalAlign=middle;whiteSpace=wrap;rounded=0;" vertex="1" parent="1">
          <mxGeometry x="310" y="330" width="60" height="30" as="geometry" />
        </mxCell>
        <mxCell id="1fhaBdgzW0mIe5YVaV1Y-9" value="" style="endArrow=classic;html=1;rounded=0;exitX=1;exitY=0.25;exitDx=0;exitDy=0;entryX=0;entryY=0.25;entryDx=0;entryDy=0;" edge="1" parent="1" source="1fhaBdgzW0mIe5YVaV1Y-1" target="1fhaBdgzW0mIe5YVaV1Y-2">
          <mxGeometry width="50" height="50" relative="1" as="geometry">
            <mxPoint x="260" y="414" as="sourcePoint" />
            <mxPoint x="260" y="754" as="targetPoint" />
          </mxGeometry>
        </mxCell>
        <mxCell id="1fhaBdgzW0mIe5YVaV1Y-11" value="Subs" style="edgeLabel;html=1;align=center;verticalAlign=middle;resizable=0;points=[];" vertex="1" connectable="0" parent="1fhaBdgzW0mIe5YVaV1Y-9">
          <mxGeometry x="-0.0431" y="4" relative="1" as="geometry">
            <mxPoint y="-8" as="offset" />
          </mxGeometry>
        </mxCell>
        <mxCell id="1fhaBdgzW0mIe5YVaV1Y-12" value="" style="endArrow=classic;html=1;rounded=0;exitX=1;exitY=0.25;exitDx=0;exitDy=0;entryX=0;entryY=0.25;entryDx=0;entryDy=0;" edge="1" parent="1">
          <mxGeometry width="50" height="50" relative="1" as="geometry">
            <mxPoint x="450" y="470" as="sourcePoint" />
            <mxPoint x="570" y="470" as="targetPoint" />
          </mxGeometry>
        </mxCell>
        <mxCell id="1fhaBdgzW0mIe5YVaV1Y-13" value="Subs" style="edgeLabel;html=1;align=center;verticalAlign=middle;resizable=0;points=[];" vertex="1" connectable="0" parent="1fhaBdgzW0mIe5YVaV1Y-12">
          <mxGeometry x="-0.0431" y="4" relative="1" as="geometry">
            <mxPoint y="-6" as="offset" />
          </mxGeometry>
        </mxCell>
        <mxCell id="1fhaBdgzW0mIe5YVaV1Y-14" value="" style="endArrow=classic;html=1;rounded=0;exitX=0;exitY=0.75;exitDx=0;exitDy=0;entryX=1;entryY=0.75;entryDx=0;entryDy=0;" edge="1" parent="1" source="1fhaBdgzW0mIe5YVaV1Y-3" target="1fhaBdgzW0mIe5YVaV1Y-2">
          <mxGeometry width="50" height="50" relative="1" as="geometry">
            <mxPoint x="520" y="680" as="sourcePoint" />
            <mxPoint x="640" y="680" as="targetPoint" />
          </mxGeometry>
        </mxCell>
        <mxCell id="1fhaBdgzW0mIe5YVaV1Y-15" value="Receive Raw Data" style="edgeLabel;html=1;align=center;verticalAlign=middle;resizable=0;points=[];" vertex="1" connectable="0" parent="1fhaBdgzW0mIe5YVaV1Y-14">
          <mxGeometry x="-0.0431" y="4" relative="1" as="geometry">
            <mxPoint y="-13" as="offset" />
          </mxGeometry>
        </mxCell>
        <mxCell id="1fhaBdgzW0mIe5YVaV1Y-16" value="" style="endArrow=classic;html=1;rounded=0;exitX=0;exitY=0.75;exitDx=0;exitDy=0;" edge="1" parent="1">
          <mxGeometry width="50" height="50" relative="1" as="geometry">
            <mxPoint x="330" y="640" as="sourcePoint" />
            <mxPoint x="210" y="640" as="targetPoint" />
          </mxGeometry>
        </mxCell>
        <mxCell id="1fhaBdgzW0mIe5YVaV1Y-17" value="Receive Biz Data" style="edgeLabel;html=1;align=center;verticalAlign=middle;resizable=0;points=[];" vertex="1" connectable="0" parent="1fhaBdgzW0mIe5YVaV1Y-16">
          <mxGeometry x="-0.0431" y="4" relative="1" as="geometry">
            <mxPoint y="-15" as="offset" />
          </mxGeometry>
        </mxCell>
      </root>
    </mxGraphModel>
  </diagram>
</mxfile>
